<?xml version="1.0" encoding="UTF-8"?>
<svg version="1.1" xmlns="http://www.w3.org/2000/svg" width="512" height="512">
<path d="M0 0 C1.44360901 0.00123871 1.44360901 0.00123871 2.91638184 0.00250244 C17.19658751 0.03068433 31.2789528 0.38557768 45.3125 3.3125 C46.05628906 3.4671875 46.80007813 3.621875 47.56640625 3.78125 C51.06370811 4.57523204 53.10367805 5.12456024 55.8125 7.5625 C57.68657206 10.99829878 57.78555495 12.41202805 57.3125 16.3125 C55.84948416 19.58187704 54.01782398 22.61242618 52.1875 25.6875 C35.37389874 55.1522815 29.80489081 91.18804831 38.73144531 124.21484375 C38.92319336 124.90707031 39.11494141 125.59929687 39.3125 126.3125 C39.63992188 127.570625 39.96734375 128.82875 40.3046875 130.125 C45.01148704 146.06627728 53.52427302 161.68954055 64.3125 174.3125 C65.57320313 175.7975 65.57320313 175.7975 66.859375 177.3125 C84.82888221 197.92651421 107.58047785 210.70705196 133.75390625 217.98828125 C147.01852082 221.75940139 147.01852082 221.75940139 151.3125 226.3125 C152.97263352 229.36183204 154.25835327 232.53550767 155.5625 235.75 C165.09924813 257.9431985 180.57477937 274.03714351 203.0078125 283.2421875 C214.09957175 286.83455397 224.1233658 287.75706498 235.77709961 287.67285156 C237.74595324 287.66427579 239.71486447 287.68720596 241.68359375 287.7109375 C242.83786865 287.70755371 243.99214355 287.70416992 245.18139648 287.70068359 C249.27362628 288.5003037 250.76326014 290.07740163 253.3125 293.3125 C254.22929407 300.19982076 252.34013587 306.80848695 250.75 313.5 C250.47969971 314.64549316 250.20939941 315.79098633 249.9309082 316.97119141 C239.39994258 360.40351056 217.46881325 401.18687922 186.3125 433.3125 C185.66684082 433.98925781 185.02118164 434.66601562 184.35595703 435.36328125 C174.06727001 446.12059924 163.50086755 455.75824068 151.3125 464.3125 C150.22219482 465.08134521 150.22219482 465.08134521 149.10986328 465.86572266 C118.10604606 487.54600193 83.57218787 502.36412812 46.3125 509.3125 C45.50216309 509.47476074 44.69182617 509.63702148 43.85693359 509.80419922 C15.90798094 515.22612817 -16.79289562 514.79238034 -44.6875 509.3125 C-45.58307617 509.15152832 -46.47865234 508.99055664 -47.40136719 508.82470703 C-107.21340465 498.00365541 -164.72893264 463.94570506 -201.6875 415.3125 C-202.10418945 414.77222168 -202.52087891 414.23194336 -202.95019531 413.67529297 C-210.6334873 403.6802884 -217.37592968 393.22040964 -223.6875 382.3125 C-224.08179199 381.63525879 -224.47608398 380.95801758 -224.88232422 380.26025391 C-238.06461173 357.3416244 -246.67010918 331.76677437 -252 305.9375 C-252.14743652 305.22682373 -252.29487305 304.51614746 -252.44677734 303.78393555 C-255.43213787 288.14141634 -256.0623098 272.50580394 -256 256.625 C-255.99817719 255.65760895 -255.99635437 254.6902179 -255.99447632 253.69351196 C-255.94904826 239.36059023 -255.44016072 225.41476083 -252.6875 211.3125 C-252.44604248 209.96696045 -252.44604248 209.96696045 -252.19970703 208.59423828 C-244.31012494 164.99311844 -224.6225709 123.84723097 -195.6875 90.3125 C-194.71876953 89.17748047 -194.71876953 89.17748047 -193.73046875 88.01953125 C-183.08809817 75.8713568 -171.59916267 64.04618663 -158.6875 54.3125 C-158.15012207 53.89871094 -157.61274414 53.48492187 -157.05908203 53.05859375 C-147.0611221 45.37173411 -136.59938153 38.62636855 -125.6875 32.3125 C-125.01025879 31.91820801 -124.33301758 31.52391602 -123.63525391 31.11767578 C-100.7166244 17.93538827 -75.14177437 9.32989082 -49.3125 4 C-48.60182373 3.85256348 -47.89114746 3.70512695 -47.15893555 3.55322266 C-31.51510912 0.56761264 -15.88175113 -0.05778788 0 0 Z " fill="#F4B87C" transform="translate(255.6875,-0.3125)"/>
<path d="M0 0 C0 4.08188627 -1.5326483 4.99211384 -4.25 8 C-11.18566089 16.00509102 -16.5942138 24.92025842 -22 34 C-22.71422119 35.19157715 -22.71422119 35.19157715 -23.44287109 36.40722656 C-34.84083825 55.625783 -43.00463441 76.50004709 -49 98 C-49.19287598 98.68900391 -49.38575195 99.37800781 -49.58447266 100.08789062 C-66.32127132 161.43183271 -56.70418567 229.29584906 -27 285 C-26.65888184 285.64888184 -26.31776367 286.29776367 -25.96630859 286.96630859 C-16.33382554 305.18592371 -4.06036623 321.39231148 9.8125 336.58984375 C11.93266617 338.92581254 13.9969731 341.30326875 16.0625 343.6875 C19.76434536 347.84663214 23.73926542 351.4276494 28 355 C28.92296875 355.81082031 29.8459375 356.62164062 30.796875 357.45703125 C70.35923247 392.0433877 120.08417414 412.20550421 172 418 C173.13566406 418.1340625 174.27132813 418.268125 175.44140625 418.40625 C236.37153341 424.37491552 303.38669794 406.93614632 351.49609375 368.2421875 C353.35814113 366.69734195 355.20624278 365.13530721 357.03125 363.546875 C359 362 359 362 361 362 C359.41903006 365.80152667 357.02201387 368.26543097 354.15234375 371.18359375 C353.66867844 371.67563797 353.18501312 372.16768219 352.68669128 372.67463684 C351.11106041 374.26985423 349.52589856 375.85499963 347.9375 377.4375 C347.12475616 378.2494281 347.12475616 378.2494281 346.29559326 379.07775879 C337.42659037 387.90583941 328.32667902 395.89718798 318 403 C316.92274658 403.75579346 316.92274658 403.75579346 315.82373047 404.52685547 C284.81377787 426.22365509 250.27480824 441.04880839 213 448 C212.18966309 448.16226074 211.37932617 448.32452148 210.54443359 448.49169922 C182.59548094 453.91362817 149.89460438 453.47988034 122 448 C121.10442383 447.83902832 120.20884766 447.67805664 119.28613281 447.51220703 C59.47409535 436.69115541 1.95856736 402.63320506 -35 354 C-35.41668945 353.45972168 -35.83337891 352.91944336 -36.26269531 352.36279297 C-43.9459873 342.3677884 -50.68842968 331.90790964 -57 321 C-57.39429199 320.32275879 -57.78858398 319.64551758 -58.19482422 318.94775391 C-71.37711173 296.0291244 -79.98260918 270.45427437 -85.3125 244.625 C-85.45993652 243.91432373 -85.60737305 243.20364746 -85.75927734 242.47143555 C-88.74463787 226.82891634 -89.3748098 211.19330394 -89.3125 195.3125 C-89.31067719 194.34510895 -89.30885437 193.3777179 -89.30697632 192.38101196 C-89.26154826 178.04809023 -88.75266072 164.10226083 -86 150 C-85.75854248 148.65446045 -85.75854248 148.65446045 -85.51220703 147.28173828 C-77.62262494 103.68061844 -57.9350709 62.53473097 -29 29 C-28.35417969 28.24332031 -27.70835938 27.48664063 -27.04296875 26.70703125 C-21.96671622 20.91253266 -16.55866819 15.45760004 -11.125 10 C-10.37476562 9.24509277 -9.62453125 8.49018555 -8.8515625 7.71240234 C-8.14 7.00293457 -7.4284375 6.2934668 -6.6953125 5.5625 C-6.05609863 4.92441406 -5.41688477 4.28632812 -4.75830078 3.62890625 C-3 2 -3 2 0 0 Z " fill="#E3AA75" transform="translate(89,61)"/>
<path d="M0 0 C4.94936213 3.74613374 8.03973163 8.78472537 9.24609375 14.8671875 C10.12761751 23.51577824 8.24791676 31.56946387 6.1027832 39.87451172 C5.55879341 41.99141054 5.04289773 44.11383023 4.52929688 46.23828125 C1.9966065 56.4284795 -0.72855461 65.72994839 -9.75390625 71.8671875 C-16.94775858 76.12477357 -25.19721477 75.95949439 -33.21362305 74.0378418 C-36.71642674 72.90376895 -40.13612486 71.64158792 -43.56640625 70.3046875 C-44.72849609 69.88638672 -45.89058594 69.46808594 -47.08789062 69.03710938 C-56.53310485 65.46629217 -63.78346982 61.18326054 -68.0625 51.76171875 C-70.97116903 43.79163694 -69.69449443 36.00331506 -68.12890625 27.8671875 C-67.91814453 26.59101562 -67.91814453 26.59101562 -67.703125 25.2890625 C-66.47468085 18.88149779 -64.06107288 14.7251481 -59.75390625 9.8671875 C-59.09261719 9.09117188 -58.43132812 8.31515625 -57.75 7.515625 C-53.26681954 3.81327245 -47.22738184 2.58762539 -41.75390625 0.8671875 C-40.49392822 0.46717529 -40.49392822 0.46717529 -39.20849609 0.05908203 C-36.47951396 -0.79647737 -33.7437186 -1.62514332 -31.00390625 -2.4453125 C-30.141604 -2.7119873 -29.27930176 -2.97866211 -28.39086914 -3.25341797 C-17.78403932 -6.33193875 -9.36877734 -6.0511034 0 0 Z " fill="#F4B87C" transform="translate(428.75390625,43.1328125)"/>
<path d="M0 0 C1.42220015 0.87520009 2.82354063 1.78654615 4.1875 2.75 C5.54875 3.61625 5.54875 3.61625 6.9375 4.5 C13.91424792 11.47674792 18.23076278 19.69385228 18.625 29.5625 C18.28705989 39.89566868 14.77390346 47.16990878 7.6328125 54.58203125 C-0.54428578 61.83169506 -8.29178301 63.24141601 -18.98046875 63.0234375 C-28.02920856 62.3777578 -34.7575719 58.39828409 -40.8125 51.75 C-47.66941953 42.72957405 -48.71816153 33.91982559 -47.8125 22.75 C-45.97246995 14.15542927 -40.64224884 7.02453846 -33.3984375 2.11328125 C-23.76925756 -3.35998226 -10.25173447 -5.06373551 0 0 Z " fill="#CD916E" transform="translate(328.8125,333.25)"/>
<path d="M0 0 C7.95496788 4.91988431 13.863451 11.23516257 16.84765625 20.20703125 C18.51265499 29.40573716 18.17297781 39.289111 13.2421875 47.38671875 C8.05293381 54.68447281 1.29512618 60.73343385 -7.7578125 62.38671875 C-19.54182071 63.43507083 -28.25709917 62.22665708 -37.91015625 54.7109375 C-45.2271573 47.98177163 -48.60967784 38.87427477 -49.1328125 29.07421875 C-48.77831466 18.21539029 -43.47998348 10.62372715 -35.7578125 3.38671875 C-26.41794098 -4.49980892 -10.85768491 -5.20949529 0 0 Z " fill="#CC916D" transform="translate(155.7578125,143.61328125)"/>
<path d="M0 0 C7.00638192 4.00976236 15.88094464 9.98736819 19.0625 17.5625 C20.07518281 24.71661406 19.16994834 29.56559305 15.0625 35.5625 C13.19621415 38.02232925 11.21704914 40.36144242 9.1875 42.6875 C8.68347656 43.28175781 8.17945313 43.87601563 7.66015625 44.48828125 C-1.55425491 55.16380108 -1.55425491 55.16380108 -7.2578125 55.8359375 C-12.96853776 56.04273257 -17.45843057 55.85358641 -22.16796875 52.41015625 C-25.96021054 48.45048656 -27.86689269 43.56970587 -29.9375 38.5625 C-30.21932129 37.9118457 -30.50114258 37.26119141 -30.79150391 36.59082031 C-37.52921392 20.95754728 -37.52921392 20.95754728 -34.9375 13.5625 C-31.88586723 7.84623986 -28.02657694 4.85222134 -22.25 2.125 C-21.54101562 1.7837207 -20.83203125 1.44244141 -20.1015625 1.09082031 C-13.10069083 -2.10037848 -7.24228227 -3.10383526 0 0 Z " fill="#F4B87C" transform="translate(461.9375,156.4375)"/>
<path d="M0 0 C3.56268303 2.64348545 5.95916689 5.82896963 8.1953125 9.62890625 C8.57042969 10.22960937 8.94554687 10.8303125 9.33203125 11.44921875 C11.59794747 17.17040088 11.28841201 25.81772232 9.0703125 31.56640625 C5.42751299 37.51631212 1.36259102 43.00982565 -5.5625 45.1796875 C-12.66260958 46.60218332 -20.6765967 46.82314451 -27.02734375 43.0234375 C-33.23824752 38.15026685 -38.05598456 32.08013662 -39.15234375 24.09765625 C-39.54548068 16.92038713 -37.95032219 11.50272118 -33.8046875 5.62890625 C-24.73779906 -4.42472775 -11.99585492 -6.76936507 0 0 Z " fill="#CD916D" transform="translate(170.8046875,317.37109375)"/>
<path d="M0 0 C-0.2165625 1.05058594 -0.433125 2.10117187 -0.65625 3.18359375 C-3.0672672 15.18147886 -5.02552345 25.93150737 1.21875 37.19921875 C7.78676454 46.77757328 18.03279857 50.51741154 28.5625 54.375 C29.76197266 54.82488281 30.96144531 55.27476563 32.19726562 55.73828125 C35.12786101 56.83579506 38.06192167 57.92271527 41 59 C40.265625 63.734375 40.265625 63.734375 37.875 66.125 C30.19234077 71.13542993 24.1395225 71.82234743 15 71 C10.23376121 69.8570445 5.74990397 68.21562811 1.1875 66.4375 C0.02541016 66.01919922 -1.13667969 65.60089844 -2.33398438 65.16992188 C-11.7791986 61.59910467 -19.02956357 57.31607304 -23.30859375 47.89453125 C-26.21726278 39.92444944 -24.94058818 32.13612756 -23.375 24 C-23.16423828 22.72382812 -23.16423828 22.72382812 -22.94921875 21.421875 C-21.72214839 15.02147598 -19.26202769 10.88126532 -15 6 C-14.360625 5.236875 -13.72125 4.47375 -13.0625 3.6875 C-8.98775848 0.35362057 -5.12043196 -1.65066557 0 0 Z " fill="#E3AA75" transform="translate(384,47)"/>
<path d="M0 0 C-0.0314209 0.83809204 -0.0314209 0.83809204 -0.06347656 1.69311523 C-0.14766294 4.27438673 -0.19897693 6.85536824 -0.25 9.4375 C-0.28351563 10.31599609 -0.31703125 11.19449219 -0.3515625 12.09960938 C-0.44790239 18.62663726 0.90891032 23.27749489 4 29 C4.556875 30.051875 5.11375 31.10375 5.6875 32.1875 C11.81502594 39.63989641 19.66188357 42.49672887 29 44 C33.76900882 44.43136763 38.30823229 43.93835354 43 43 C41.96930321 48.85801087 37.55821278 53.03706365 32.96875 56.55859375 C24.33239491 62.15561618 16.1626786 62.83369845 6 62 C-2.96706157 59.99531555 -9.87811549 54.55665626 -14.875 46.9375 C-19.97241848 38.50715406 -20.41864362 28.62632275 -18.3828125 19.1171875 C-15.88010402 12.0520193 -8.53767158 0 0 0 Z " fill="#B67F5F" transform="translate(300,334)"/>
<path d="M0 0 C-0.23783203 1.02867187 -0.23783203 1.02867187 -0.48046875 2.078125 C-2.10795592 11.23121074 -1.9701367 19.99513809 3 28 C3.42410156 28.69738281 3.84820312 29.39476562 4.28515625 30.11328125 C8.61301084 36.51464835 14.222955 40.43217 21.3125 43.375 C28.46341723 44.58701987 35.90001142 44.57777524 43 43 C41.00379863 50.09760487 35.56831381 55.37602184 29.3125 58.9375 C21.83517609 62.85545835 13.27306045 63.09121371 5 62 C-4.19814457 59.10294659 -11.72085029 53.59462001 -16.3125 45.0625 C-20.23181741 36.31552553 -21.41917299 27.82385993 -18.5625 18.5625 C-15.82563779 11.58791565 -8.30767154 0 0 0 Z " fill="#B67F5F" transform="translate(127,144)"/>
<path d="M0 0 C-0.04382813 0.67160156 -0.08765625 1.34320313 -0.1328125 2.03515625 C-0.11075801 10.58127217 2.41003537 17.23976805 5.8125 25 C6.25126465 26.00297119 6.6900293 27.00594238 7.14208984 28.03930664 C11.28744331 37.3667026 11.28744331 37.3667026 19.25 43.3125 C19.95640625 43.63863281 20.6628125 43.96476562 21.390625 44.30078125 C21.92171875 44.53152344 22.4528125 44.76226562 23 45 C20.91016294 49.71218068 17.65539954 52.67230023 13 55 C6.68463033 55.74423548 1.03177624 55.69520401 -4.23046875 51.84765625 C-8.02271054 47.88798656 -9.92939269 43.00720587 -12 38 C-12.28182129 37.3493457 -12.56364258 36.69869141 -12.85400391 36.02832031 C-19.72216963 20.09235546 -19.72216963 20.09235546 -17 13 C-14.48591656 7.20197024 -6.66214944 0 0 0 Z " fill="#E3AA75" transform="translate(444,157)"/>
<path d="M0 0 C3.33906654 2.55913859 4.82994206 4.99371323 6.10546875 8.91796875 C6.75345638 14.02652242 6.90041359 19.17093243 4.54296875 23.85546875 C1.00443517 28.30131863 -1.98382808 30.50215401 -7.546875 31.296875 C-13.85888204 31.56528682 -17.92571218 30.87274311 -22.89453125 26.91796875 C-26.39309099 22.4992985 -28.31413944 17.64199142 -27.67578125 11.9765625 C-26.66603183 6.85985151 -24.81004265 3.50024513 -20.89453125 -0.08203125 C-14.08962105 -3.88793952 -6.81487716 -3.89220819 0 0 Z " fill="#E4AA75" transform="translate(505.89453125,93.08203125)"/>
<path d="M0 0 C0.99 0.33 1.98 0.66 3 1 C2.67 1.66 2.34 2.32 2 3 C1.01932267 11.06957342 2.33052243 17.31761481 7 24 C11.60566064 29.06727583 16.02691775 31.85440342 22.98828125 32.1953125 C24.42981792 32.18214778 25.87129219 32.15848651 27.3125 32.125 C28.05306641 32.11597656 28.79363281 32.10695313 29.55664062 32.09765625 C31.37123467 32.07424213 33.18566071 32.03837615 35 32 C33.70745182 35.83148211 32.3090779 38.04934173 29.25 40.6875 C28.59515625 41.26886719 27.9403125 41.85023438 27.265625 42.44921875 C20.8243707 46.85814626 13.51252861 46.71810935 6 46 C-0.74486303 44.24722309 -5.04374169 39.52620208 -9 34 C-12.40161823 28.18433012 -12.94999726 22.58664764 -12 16 C-9.90721773 9.52632685 -6.21305847 3.25375811 0 0 Z " fill="#B67F5F" transform="translate(144,317)"/>
<path d="M0 0 C4.15422393 2.79958569 7.61888159 6.42526317 9.875 10.9375 C10.68762128 17.47843522 9.73464688 21.61744619 5.875 26.9375 C0.92139133 31.5286495 -3.05532039 32.29520733 -9.62109375 32.21875 C-14.55139397 31.66495653 -17.23720763 28.92126992 -20.4375 25.375 C-23.58157768 20.83355446 -23.87892335 16.29295551 -23.125 10.9375 C-21.38105719 6.47988832 -18.83180849 3.06480027 -14.8125 0.4375 C-9.43158646 -1.75134619 -5.61900983 -1.91046334 0 0 Z " fill="#CD916E" transform="translate(254.125,199.0625)"/>
<path d="M0 0 C4.61936257 3.73325843 6.91671589 8.10856363 9.375 13.375 C9.92607422 14.46941406 9.92607422 14.46941406 10.48828125 15.5859375 C12.79031632 20.45061539 13.38728018 23.60805879 12 29 C10.9375 30.9375 10.9375 30.9375 9 32 C2.02511533 32.77498719 2.02511533 32.77498719 -0.953125 30.5234375 C-3.80611068 27.00620706 -5.77818199 23.2201014 -7.8125 19.1875 C-8.23208984 18.40568359 -8.65167969 17.62386719 -9.08398438 16.81835938 C-11.62544573 11.80661432 -12.53398389 8.64390298 -11 3 C-8.79819638 -1.01505367 -4.08312019 -1.1366928 0 0 Z " fill="#A26F51" transform="translate(400,306)"/>
<path d="M0 0 C1.89770159 2.53026878 2.02507887 4.75236609 2.12890625 7.8671875 C0.76297214 12.49948579 -3.24195258 14.9945576 -7.27734375 17.23828125 C-8.6587929 17.94015712 -10.04566793 18.63144568 -11.4375 19.3125 C-12.12779297 19.67150391 -12.81808594 20.03050781 -13.52929688 20.40039062 C-17.66065933 22.45628189 -20.78317634 23.57152754 -25.5 23 C-28.375 21.5 -28.375 21.5 -30.5 19 C-31.44327177 13.59762533 -31.44327177 13.59762533 -30.5 11 C-22.88508125 3.66964473 -10.69222324 -4.27688929 0 0 Z " fill="#B7805F" transform="translate(336.5,266)"/>
<path d="M0 0 C4.44452475 3.69433427 6.82143997 7.84666194 9.3125 12.9375 C9.67150391 13.62779297 10.03050781 14.31808594 10.40039062 15.02929688 C12.45628189 19.16065933 13.57152754 22.28317634 13 27 C11.5 29.875 11.5 29.875 9 32 C3.59762533 32.94327177 3.59762533 32.94327177 1 32 C-4.98498224 25.78268149 -11.25448928 16.23506553 -11.6875 7.375 C-11 4 -11 4 -9.4375 1.5 C-6.00863886 -0.61006839 -3.95779649 -0.62491523 0 0 Z " fill="#B7805F" transform="translate(86,240)"/>
<path d="M0 0 C3.05174034 2.5307115 3.82214839 4.14631226 4.625 8 C3.76506428 12.12769143 1.31016124 13.69078937 -2 16 C-4.74229585 17.62149606 -7.55786958 19.0153867 -10.4375 20.375 C-11.16259766 20.74238281 -11.88769531 21.10976563 -12.63476562 21.48828125 C-17.4539112 23.78311248 -20.66068128 24.48501911 -26 23 C-28.69735434 20.13406101 -28.97734473 18.42289845 -29.1875 14.5 C-27.46392795 9.41999818 -24.595098 8.3820988 -20 6 C-19.12214844 5.45859375 -18.24429688 4.9171875 -17.33984375 4.359375 C-11.76276976 1.00214902 -6.60546982 -1.82267113 0 0 Z " fill="#B77F5F" transform="translate(219,397)"/>
<path d="M0 0 C3.31407709 2.58123449 4.8327612 4.99454127 6.08984375 8.92578125 C6.35546875 11.75 6.35546875 11.75 6.33984375 14.61328125 C6.345 15.56589844 6.35015625 16.51851562 6.35546875 17.5 C6.08984375 19.92578125 6.08984375 19.92578125 4.08984375 21.92578125 C-1.60116792 22.34030107 -7.34446967 22.00120436 -11.97265625 18.42578125 C-15.47494607 14.84642393 -17.15753093 10.84679294 -17.91015625 5.92578125 C-17.84962931 3.11826231 -17.4643586 0.69679301 -16.91015625 -2.07421875 C-11.0763138 -3.5092816 -5.30993113 -2.98615759 0 0 Z " fill="#F4B97C" transform="translate(505.91015625,93.07421875)"/>
<path d="M0 0 C0.99 0 1.98 0 3 0 C3.12117187 0.80824219 3.24234375 1.61648437 3.3671875 2.44921875 C3.53476563 3.51785156 3.70234375 4.58648437 3.875 5.6875 C4.11863281 7.27111328 4.11863281 7.27111328 4.3671875 8.88671875 C4.96592544 11.83236157 5.65861322 14.31241859 7 17 C9.49034386 18.29660434 9.49034386 18.29660434 12 19 C12.33 19.33 12.66 19.66 13 20 C15.01964199 20.07244053 17.04167124 20.08377188 19.0625 20.0625 C20.16722656 20.05347656 21.27195312 20.04445312 22.41015625 20.03515625 C23.26480469 20.02355469 24.11945313 20.01195312 25 20 C23.42552722 24.3824035 21.88713176 26.34537343 18 29 C13.64950335 30.45016555 9.54665815 30.51070107 5 30 C-0.31565158 27.34217421 -4.10236008 23.69291975 -6 18 C-6.86934656 11.70344704 -5.81035182 7.72768466 -2.19140625 2.53125 C-1 1 -1 1 0 0 Z " fill="#B7805F" transform="translate(237,201)"/>
<path d="M0 0 C5.98467762 1.89311231 10.90396945 7.63720418 14.296875 12.7265625 C14.86748518 17.12841248 14.80443562 19.02493458 12.171875 22.6640625 C8.73191381 25.13186074 7.44349513 25.24682167 3.296875 24.7265625 C0.62890625 22.8984375 0.62890625 22.8984375 -1.890625 20.4765625 C-3.14939453 19.29320312 -3.14939453 19.29320312 -4.43359375 18.0859375 C-9.57651768 12.73942106 -9.57651768 12.73942106 -10.140625 8.2265625 C-9.703125 4.7265625 -9.703125 4.7265625 -8.203125 2.2890625 C-5.45153873 0.56932108 -3.26874716 -0.13517375 0 0 Z " fill="#A26F51" transform="translate(191.703125,264.2734375)"/>
<path d="M0 0 C4.35666589 0.87133318 5.85991281 2.09449967 8.4375 5.6875 C9.1875 8.5 9.1875 8.5 8.4375 11.6875 C6.39025642 14.65892783 4.00247219 17.15887357 1.4375 19.6875 C0.66792969 20.48994141 0.66792969 20.48994141 -0.1171875 21.30859375 C-2.78505021 23.85387899 -4.52438433 24.6815855 -8.1875 25.25 C-11.5625 24.6875 -11.5625 24.6875 -13.9375 23.0625 C-16.0673975 19.94957288 -16.78261098 18.50275697 -16.5625 14.6875 C-14.56523896 11.67957675 -12.10572654 9.23578265 -9.5625 6.6875 C-8.79099609 5.77484375 -8.79099609 5.77484375 -8.00390625 4.84375 C-5.43906616 1.89661667 -3.86929074 0.74670523 0 0 Z " fill="#A16F50" transform="translate(247.5625,123.3125)"/>
<path d="M0 0 C3.0242515 2.00083559 5.48722371 4.39785719 8 7 C8.53367188 7.52464844 9.06734375 8.04929687 9.6171875 8.58984375 C11.88742086 11.00757814 12.95967372 12.80240121 13.625 16.0625 C12.76049116 20.12569154 11.34729173 21.57855492 8 24 C4.73578856 24.47020189 2.23896158 24.72402432 -0.69116211 23.01171875 C-2.39739644 21.61891645 -3.91680064 20.15564777 -5.4375 18.5625 C-5.96666016 18.01988525 -6.49582031 17.47727051 -7.04101562 16.91821289 C-9.91894086 13.76944045 -11.83196967 11.36473383 -12 6.9375 C-11.57796195 4.25974132 -11.09387969 3.12392119 -9.4375 0.9375 C-5.86363702 -0.43706269 -3.82311652 -0.63718609 0 0 Z " fill="#B7805F" transform="translate(210,75)"/>
<path d="M0 0 C2.6875 1.53125 2.6875 1.53125 5 4 C5.48722793 6.90521003 5.65912572 9.11689757 5.5625 12 C5.57345703 12.7115625 5.58441406 13.423125 5.59570312 14.15625 C5.54757044 17.59613278 5.24999989 19.65481415 3.21484375 22.46484375 C0.89328264 24.07396812 -0.21045064 24.56794834 -3 24.5625 C-3.66 24.58441406 -4.32 24.60632813 -5 24.62890625 C-8.23574084 23.61141743 -9.26818838 21.85597005 -11 19 C-11.53125 15.37109375 -11.53125 15.37109375 -11.5 11.4375 C-11.5103125 10.13683594 -11.520625 8.83617187 -11.53125 7.49609375 C-11 4 -11 4 -9.18359375 1.56640625 C-5.97401352 -0.73599388 -3.85602817 -0.54119694 0 0 Z " fill="#A16F50" transform="translate(292,438)"/>
</svg>
