<svg width="926" height="585" viewBox="0 0 926 585" fill="none" xmlns="http://www.w3.org/2000/svg">
<g clip-path="url(#clip0_135_2)">
<path d="M422.01 465.735C189.43 465.735 0.80101 519.075 0.0100098 584.958H844.01C843.219 519.075 654.59 465.735 422.01 465.735Z" fill="#D6D6E3"/>
<g opacity="0.1">
<path d="M352 567.569C396.183 567.569 432 557.62 432 545.347C432 533.074 396.183 523.125 352 523.125C307.817 523.125 272 533.074 272 545.347C272 557.62 307.817 567.569 352 567.569Z" fill="black"/>
</g>
<g opacity="0.1">
<path d="M525 527.569C569.183 527.569 605 517.62 605 505.347C605 493.074 569.183 483.125 525 483.125C480.817 483.125 445 493.074 445 505.347C445 517.62 480.817 527.569 525 527.569Z" fill="black"/>
</g>
<g opacity="0.1">
<path d="M352 565.347C391.765 565.347 424 556.393 424 545.347C424 534.301 391.765 525.347 352 525.347C312.235 525.347 280 534.301 280 545.347C280 556.393 312.235 565.347 352 565.347Z" fill="black"/>
</g>
<g opacity="0.1">
<path d="M525 525.347C564.765 525.347 597 516.393 597 505.347C597 494.301 564.765 485.347 525 485.347C485.235 485.347 453 494.301 453 505.347C453 516.393 485.235 525.347 525 525.347Z" fill="black"/>
</g>
<path d="M138 132.958C141.866 132.958 145 129.824 145 125.958C145 122.092 141.866 118.958 138 118.958C134.134 118.958 131 122.092 131 125.958C131 129.824 134.134 132.958 138 132.958Z" fill="#F2F2F2"/>
<path d="M740 406.958C743.866 406.958 747 403.824 747 399.958C747 396.092 743.866 392.958 740 392.958C736.134 392.958 733 396.092 733 399.958C733 403.824 736.134 406.958 740 406.958Z" fill="#F2F2F2"/>
<path d="M410 181.958C413.866 181.958 417 178.824 417 174.958C417 171.092 413.866 167.958 410 167.958C406.134 167.958 403 171.092 403 174.958C403 178.824 406.134 181.958 410 181.958Z" fill="#F2F2F2"/>
<path d="M757 136.958C759.209 136.958 761 135.167 761 132.958C761 130.749 759.209 128.958 757 128.958C754.791 128.958 753 130.749 753 132.958C753 135.167 754.791 136.958 757 136.958Z" fill="#F97316"/>
<path d="M154 336.958C156.209 336.958 158 335.167 158 332.958C158 330.749 156.209 328.958 154 328.958C151.791 328.958 150 330.749 150 332.958C150 335.167 151.791 336.958 154 336.958Z" fill="#F97316"/>
<path d="M94 417.28H92.178V415.458H91.822V417.28H90V417.636H91.822V419.458H92.178V417.636H94V417.28Z" fill="#F2F2F2"/>
<path d="M679 269.28H677.178V267.458H676.822V269.28H675V269.636H676.822V271.458H677.178V269.636H679V269.28Z" fill="#F2F2F2"/>
<path d="M830 239.28H828.178V237.458H827.822V239.28H826V239.636H827.822V241.458H828.178V239.636H830V239.28Z" fill="#F2F2F2"/>
<path d="M505 319.28H503.178V317.458H502.822V319.28H501V319.636H502.822V321.458H503.178V319.636H505V319.28Z" fill="#F2F2F2"/>
<path d="M786 329.28H784.178V327.458H783.822V329.28H782V329.636H783.822V331.458H784.178V329.636H786V329.28Z" fill="#F2F2F2"/>
<path d="M447 372.28H445.178V370.458H444.822V372.28H443V372.636H444.822V374.458H445.178V372.636H447V372.28Z" fill="#F2F2F2"/>
<path d="M575 374.28H573.178V372.458H572.822V374.28H571V374.636H572.822V376.458H573.178V374.636H575V374.28Z" fill="#F2F2F2"/>
<path d="M96 204.28H94.178V202.458H93.822V204.28H92V204.636H93.822V206.458H94.178V204.636H96V204.28Z" fill="#F2F2F2"/>
<path d="M611.748 221.004L585.3 281.942L590.474 290.565L588.749 293.439L600.822 299.763V296.314L605.422 295.164L624.968 259.521L611.748 221.004Z" fill="#D6D6E3"/>
<path d="M591.052 292.865C591.052 292.865 571.506 323.334 593.352 327.933C615.198 332.532 597.376 295.739 597.376 295.739L591.052 292.865Z" fill="#D6D6E3"/>
<path d="M619.221 279.067L612.321 301.488L609.447 330.232L604.273 340.58L610.022 387.146L619.222 396.346L623.246 442.337V463.037L634.169 482.008L620.1 501.966C619.436 502.904 619.039 504.004 618.951 505.15C618.863 506.296 619.086 507.444 619.598 508.472C620.11 509.501 620.891 510.372 621.858 510.993C622.825 511.613 623.942 511.96 625.09 511.997C628.195 512.079 632.29 511.197 637.615 508.447C654.287 499.824 653.715 491.775 653.715 491.775C653.715 491.775 664.063 491.775 664.638 483.727C665.213 475.679 658.314 418.19 658.314 418.19L651.99 393.47V326.208H654.29L655.44 383.697L660.614 404.968L661.189 414.168L668.663 506.15C668.663 506.15 702.006 515.35 703.731 507.875C705.456 500.4 691.084 495.802 691.084 495.802L699.707 479.13V446.934L696.833 440.034L700.282 402.014V384.271L704.882 378.522V332.532L699.133 314.711L697.408 299.764L688.208 276.764C688.208 276.764 646.241 262.971 619.221 279.067Z" fill="#F2F2F2"/>
<path d="M619.221 279.067L612.321 301.488L609.447 330.232L604.273 340.58L610.022 387.146L619.222 396.346L623.246 442.337V463.037L634.169 482.008L620.1 501.966C619.436 502.904 619.039 504.004 618.951 505.15C618.863 506.296 619.086 507.444 619.598 508.472C620.11 509.501 620.891 510.372 621.858 510.993C622.825 511.613 623.942 511.96 625.09 511.997C628.195 512.079 632.29 511.197 637.615 508.447C654.287 499.824 653.715 491.775 653.715 491.775C653.715 491.775 664.063 491.775 664.638 483.727C665.213 475.679 658.314 418.19 658.314 418.19L651.99 393.47V326.208H654.29L655.44 383.697L660.614 404.968L661.189 414.168L668.663 506.15C668.663 506.15 702.006 515.35 703.731 507.875C705.456 500.4 691.084 495.802 691.084 495.802L699.707 479.13V446.934L696.833 440.034L700.282 402.014V384.271L704.882 378.522V332.532L699.133 314.711L697.408 299.764L688.208 276.764C688.208 276.764 646.241 262.971 619.221 279.067Z" fill="#F2F2F2"/>
<path d="M693.956 149.143C693.956 156.058 692.315 162.874 689.167 169.031C686.02 175.188 681.456 180.51 675.851 184.559C670.246 188.609 663.759 191.27 656.925 192.324C650.092 193.378 643.105 192.795 636.54 190.623C629.975 188.451 624.02 184.751 619.163 179.829C614.307 174.907 610.688 168.902 608.605 162.309C606.521 155.715 606.032 148.721 607.178 141.902C608.324 135.083 611.073 128.633 615.197 123.083L615.209 123.071C620.689 115.699 628.353 110.242 637.113 107.476C645.872 104.709 655.28 104.774 664 107.661C672.721 110.548 680.309 116.11 685.687 123.557C691.065 131.004 693.959 139.957 693.957 149.142L693.956 149.143Z" fill="#F97316"/>
<path d="M701.192 134.521L685.333 149.143C658.549 79.616 615.944 122.325 615.208 123.072C619.611 117.151 625.442 112.442 632.156 109.383C638.871 106.324 646.251 105.016 653.608 105.58C668.563 106.728 694.179 121.26 701.187 134.521H701.192Z" fill="#F2F2F2"/>
<path d="M682.908 120.111L688.897 140.901C688.897 140.901 676.464 178.164 618.811 179.463L616.921 184.786L610.597 186.511L607.723 198.584L615.771 275.044C615.771 275.044 612.322 282.518 618.071 281.944C618.071 281.944 656.013 269.297 688.782 280.794C688.782 280.794 695.682 283.668 693.956 277.345C693.956 277.345 716.956 262.973 715.227 248.026C713.498 233.079 716.952 163.518 716.952 163.518C716.952 163.518 720.401 143.397 710.052 138.798C710.053 138.795 694.855 117.523 682.908 120.111Z" fill="#F2F2F2"/>
<path d="M670.3 265.376C670.3 265.376 634.282 268.993 644.252 288.967C654.222 308.941 671.977 272.116 671.977 272.116L670.3 265.376Z" fill="#D6D6E3"/>
<path d="M688.782 176.158C688.782 176.158 682.458 183.632 684.758 195.704C687.058 207.776 695.681 234.796 695.681 234.796L665.212 262.965L674.412 275.612L715.8 254.347L725 248.598C722.713 225.346 717.021 202.556 708.108 180.958L706.608 177.313C706.608 177.313 695.681 172.714 688.782 176.158Z" fill="#D6D6E3"/>
<path d="M481 188.28H479.178V186.458H478.822V188.28H477V188.636H478.822V190.458H479.178V188.636H481V188.28Z" fill="#F2F2F2"/>
<path d="M645 132.28H643.178V130.458H642.822V132.28H641V132.636H642.822V134.458H643.178V132.636H645V132.28Z" fill="#F2F2F2"/>
<path d="M627 149.28H625.178V147.458H624.822V149.28H623V149.636H624.822V151.458H625.178V149.636H627V149.28Z" fill="#F2F2F2"/>
<path d="M556 106.958C558.209 106.958 560 105.167 560 102.958C560 100.749 558.209 98.958 556 98.958C553.791 98.958 552 100.749 552 102.958C552 105.167 553.791 106.958 556 106.958Z" fill="#F2F2F2"/>
<path d="M239 353.958C242.866 353.958 246 350.824 246 346.958C246 343.092 242.866 339.958 239 339.958C235.134 339.958 232 343.092 232 346.958C232 350.824 235.134 353.958 239 353.958Z" fill="#F2F2F2"/>
<path d="M334 202.636H332.178V204.458H331.822V202.636H330V202.28H331.822V200.458H332.178V202.28H334V202.636Z" fill="#F2F2F2"/>
<path d="M276 149.636H274.178V151.458H273.822V149.636H272V149.28H273.822V147.458H274.178V149.28H276V149.636Z" fill="#F2F2F2"/>
<path d="M310 333.636H308.178V335.458H307.822V333.636H306V333.28H307.822V331.458H308.178V333.28H310V333.636Z" fill="#F2F2F2"/>
<path d="M394.345 286.437L414.735 332.297L410.746 338.786L412.076 340.949L402.768 345.708V343.113L399.222 342.247L384.153 315.424L394.345 286.437Z" fill="#D6D6E3"/>
<path d="M410.559 340.769C410.559 340.769 426.21 363.047 408.718 366.409C391.226 369.772 405.496 342.87 405.496 342.87L410.559 340.769Z" fill="#D6D6E3"/>
<path d="M388.399 330.561L393.759 347.351L395.991 368.877L400.01 376.626L395.544 411.499L388.398 418.388L385.272 452.83V468.331L376.787 482.538L387.716 497.484C388.231 498.187 388.54 499.011 388.608 499.869C388.677 500.727 388.503 501.586 388.106 502.357C387.708 503.127 387.102 503.779 386.35 504.244C385.599 504.709 384.732 504.969 383.84 504.996C381.428 505.058 378.247 504.397 374.11 502.338C361.159 495.88 361.604 489.853 361.604 489.853C361.604 489.853 353.565 489.853 353.119 483.826C352.672 477.799 358.031 434.747 358.031 434.747L362.944 416.234V365.864H361.157L360.264 408.916L356.245 424.845L355.798 431.735L349.992 500.618C349.992 500.618 324.091 507.507 322.751 501.909C321.411 496.312 332.575 492.868 332.575 492.868L325.877 480.383V456.272L328.11 451.105L325.43 422.633V409.346L321.857 405.04V370.599L326.323 357.254L327.663 346.06L334.81 328.836C334.81 328.836 367.409 318.507 388.399 330.561Z" fill="#F2F2F2"/>
<path d="M329.786 232.724C329.786 237.903 331.084 243.008 333.573 247.619C336.061 252.23 339.67 256.215 344.102 259.248C348.534 262.28 353.662 264.273 359.066 265.063C364.469 265.852 369.993 265.416 375.184 263.789C380.375 262.162 385.083 259.392 388.923 255.705C392.763 252.019 395.625 247.522 397.272 242.584C398.919 237.646 399.306 232.409 398.4 227.302C397.494 222.195 395.321 217.364 392.06 213.208L392.05 213.199C387.717 207.678 381.657 203.591 374.731 201.519C367.806 199.447 360.367 199.496 353.472 201.658C346.577 203.82 340.577 207.986 336.325 213.563C332.072 219.14 329.784 225.844 329.786 232.724L329.786 232.724Z" fill="#F97316"/>
<path d="M324.122 222.182L336.657 233.34C357.826 180.285 391.5 212.876 392.082 213.446C388.602 208.927 383.993 205.334 378.686 203C373.379 200.666 367.546 199.667 361.731 200.098C349.911 200.974 329.665 212.063 324.126 222.182H324.122Z" fill="#F2F2F2"/>
<path d="M338.791 211.276L334.094 226.798C334.094 226.798 343.843 254.619 389.051 255.589L390.533 259.563L395.491 260.851L397.745 269.865L391.434 326.95C391.434 326.95 394.139 332.53 389.631 332.102C389.631 332.102 359.88 322.66 334.185 331.243C334.185 331.243 328.774 333.389 330.128 328.668C330.128 328.668 312.093 317.938 313.449 306.779C314.804 295.619 312.096 243.684 312.096 243.684C312.096 243.684 309.391 228.662 317.506 225.228C317.506 225.226 329.423 209.344 338.791 211.276Z" fill="#F2F2F2"/>
<path d="M349.197 319.777C349.197 319.777 376.884 322.5 369.22 337.535C361.556 352.57 347.908 324.851 347.908 324.851L349.197 319.777Z" fill="#D6D6E3"/>
<path d="M334.131 252.819C334.131 252.819 339.043 258.408 337.257 267.435C335.47 276.462 328.773 296.666 328.773 296.666L352.439 317.729L345.293 327.186L313.146 311.285L306 306.986C307.777 289.599 312.197 272.558 319.12 256.408L320.286 253.683C320.286 253.683 328.773 250.244 334.131 252.819Z" fill="#D6D6E3"/>
<path d="M368.296 220.21H369.844V218.522H370.146V220.21H371.694V220.54H370.146V222.227H369.844V220.54H368.296V220.21Z" fill="#F2F2F2"/>
<path d="M383.02 233.23H384.052V232.105H384.254V233.23H385.286V233.45H384.254V234.575H384.052V233.45H383.02V233.23Z" fill="#F2F2F2"/>
</g>
<defs>
<clipPath id="clip0_135_2">
<rect width="926" height="584.958" fill="white"/>
</clipPath>
</defs>
</svg>
